<svg xmlns="http://www.w3.org/2000/svg" width="1200" height="700" viewBox="0 0 1200 700" role="img" aria-labelledby="title desc">
  <title id="title">Advanced Calculator Preview</title>
  <desc id="desc">Preview image of the calculator project layout with display, history, and controls.</desc>

  <defs>
    <linearGradient id="bg" x1="0" y1="0" x2="1" y2="1">
      <stop offset="0%" stop-color="#f8f2e8" />
      <stop offset="100%" stop-color="#efe2cf" />
    </linearGradient>
  </defs>

  <rect width="1200" height="700" fill="url(#bg)" />

  <rect x="80" y="70" width="1040" height="560" rx="24" fill="#fff9f1" stroke="#d2c4b2" stroke-width="2" />
  <rect x="80" y="70" width="1040" height="58" rx="24" fill="#2a5f92" />
  <circle cx="115" cy="99" r="8" fill="#f8f2e8" />
  <circle cx="140" cy="99" r="8" fill="#f8f2e8" />
  <circle cx="165" cy="99" r="8" fill="#f8f2e8" />

  <text x="210" y="105" font-family="Manrope, Arial, sans-serif" font-size="22" font-weight="700" fill="#ffffff">Project 1 - Advanced Calculator</text>

  <rect x="120" y="160" width="320" height="430" rx="18" fill="#ffffff" stroke="#d7cbbb" />
  <text x="145" y="198" font-family="Manrope, Arial, sans-serif" font-size="20" font-weight="700" fill="#201912">History</text>

  <rect x="145" y="220" width="270" height="74" rx="12" fill="#f6f0e7" stroke="#d9cdbd" />
  <text x="160" y="248" font-family="Manrope, Arial, sans-serif" font-size="15" fill="#5b4f44">2*(3+4)</text>
  <text x="160" y="274" font-family="Fraunces, Georgia, serif" font-size="22" font-weight="700" fill="#201912">14</text>

  <rect x="145" y="306" width="270" height="74" rx="12" fill="#f6f0e7" stroke="#d9cdbd" />
  <text x="160" y="334" font-family="Manrope, Arial, sans-serif" font-size="15" fill="#5b4f44">sqrt(81)</text>
  <text x="160" y="360" font-family="Fraunces, Georgia, serif" font-size="22" font-weight="700" fill="#201912">9</text>

  <rect x="145" y="392" width="270" height="74" rx="12" fill="#f6f0e7" stroke="#d9cdbd" />
  <text x="160" y="420" font-family="Manrope, Arial, sans-serif" font-size="15" fill="#5b4f44">sin(pi/2)</text>
  <text x="160" y="446" font-family="Fraunces, Georgia, serif" font-size="22" font-weight="700" fill="#201912">1</text>

  <rect x="480" y="160" width="600" height="430" rx="18" fill="#ffffff" stroke="#d7cbbb" />

  <rect x="510" y="190" width="540" height="126" rx="14" fill="#f6f0e7" stroke="#d9cdbd" />
  <text x="535" y="220" font-family="Manrope, Arial, sans-serif" font-size="14" font-weight="700" fill="#2a5f92">EXPRESSION</text>
  <text x="535" y="255" font-family="Fraunces, Georgia, serif" font-size="30" fill="#201912">(150 + 25%) * 2</text>
  <text x="535" y="292" font-family="Fraunces, Georgia, serif" font-size="38" font-weight="700" fill="#201912">375</text>

  <g font-family="Manrope, Arial, sans-serif" font-size="14" font-weight="700" text-anchor="middle">
    <rect x="510" y="338" width="92" height="48" rx="10" fill="#ffffff" stroke="#d3c5b3" /><text x="556" y="368" fill="#201912">MC</text>
    <rect x="614" y="338" width="92" height="48" rx="10" fill="#ffffff" stroke="#d3c5b3" /><text x="660" y="368" fill="#201912">MR</text>
    <rect x="718" y="338" width="92" height="48" rx="10" fill="#ffffff" stroke="#d3c5b3" /><text x="764" y="368" fill="#201912">M+</text>
    <rect x="822" y="338" width="92" height="48" rx="10" fill="#ffffff" stroke="#d3c5b3" /><text x="868" y="368" fill="#201912">M-</text>
    <rect x="926" y="338" width="124" height="48" rx="10" fill="#2a5f92" /><text x="988" y="368" fill="#ffffff">=</text>

    <rect x="510" y="398" width="92" height="48" rx="10" fill="#ffffff" stroke="#d3c5b3" /><text x="556" y="428" fill="#201912">sin</text>
    <rect x="614" y="398" width="92" height="48" rx="10" fill="#ffffff" stroke="#d3c5b3" /><text x="660" y="428" fill="#201912">cos</text>
    <rect x="718" y="398" width="92" height="48" rx="10" fill="#ffffff" stroke="#d3c5b3" /><text x="764" y="428" fill="#201912">tan</text>
    <rect x="822" y="398" width="92" height="48" rx="10" fill="#ffffff" stroke="#d3c5b3" /><text x="868" y="428" fill="#201912">log</text>
    <rect x="926" y="398" width="124" height="48" rx="10" fill="#f6f0e7" stroke="#d3c5b3" /><text x="988" y="428" fill="#201912">Clear History</text>
  </g>

  <text x="120" y="664" font-family="Manrope, Arial, sans-serif" font-size="18" fill="#5b4f44">Preview milestone: calculator UI and logic are functional in browser + Python reference script.</text>
</svg>
